<svg id="Group_1_copy" data-name="Group 1 copy" xmlns="http://www.w3.org/2000/svg" viewBox="0 0 285.0197 284.98582"><g id="Layer_1_Image" data-name="Layer 1 Image"><path d="M159.67763,226.13377c3.86133-14.97075,7.72266-29.94149,11.63477-45.10908h72.94192V372.54416H108.4058c-1.234-5.16635-.41708-8.49689,4.95886-11.5655,9.83251-5.61236,15.93514-15.20258,20.31015-25.28993,20.46437-47.1843,40.49586-94.55633,60.67473-141.86441.24237-.56821.38813-1.17763.67687-2.0705-10.03913-.18081-17.44463,4.42281-22.36947,12.1491-4.55276,7.14255-7.77908,15.13059-11.58958,22.74629Zm40.13674-18.0585c-1.13148,2.35648-1.97623,3.92971-2.66113,5.56968-13.67458,32.74332-27.47474,65.43544-40.90438,98.279-4.12479,10.08759-8.03617,20.39891-10.57689,30.961-2.77969,11.55555,3.63931,21.2139,14.49372,22.65354a45.49193,45.49193,0,0,0,17.15421-1.36648c9.69419-2.56009,16.5701-9.62437,22.77822-17.10246,13.219-15.92325,22.50663-34.15661,28.765-53.68457a35.06283,35.06283,0,0,0-1.05661-25.31822q-9.40725-20.60331-18.96828-41.13632C205.9939,220.80948,203.01474,214.75112,199.81437,208.07527Zm28.80249,33.36291,1.28093-.33534c0-15.75138.04509-31.5032-.11567-47.25293a3.75631,3.75631,0,0,0-2.59548-2.59434c-7.09992-.2191-14.20966-.12017-22.21614-.12017Zm1.02944,81.02436-.95875-.17441c-6.58914,14.08813-13.17828,28.17625-19.8743,42.49287h20.833Z" transform="translate(-107.90328 -87.7188)"/><path d="M392.923,364.57641v8.12821H256.78491V181.01032c6.21984,0,12.18177.00031,18.1437-.00006,16.83024-.001,33.66057.02508,50.49062-.0334,2.50441-.0087,4.22955.09989,5.00381,3.26132,3.31164,13.52175,6.96293,26.96024,10.46095,40.43671a7.7788,7.7788,0,0,1,.01973,1.89482l-1.41179.69144a29.29389,29.29389,0,0,1-2.249-4.70063c-2.41736-8.63023-6.20693-16.49532-12.71757-22.78524-5.03935-4.86853-10.87792-8.059-18.844-7.60093,4.93018,11.66058,9.65937,22.93639,14.45945,34.18192,15.30375,35.85328,30.38491,71.80489,46.08723,107.483C371.8138,346.53085,379.274,358.24987,392.923,364.57641ZM301.19692,207.92788c-9.25156,20.01051-17.59138,38.95607-26.75923,57.49211a37.46252,37.46252,0,0,0-2.47534,27.55524,151.66088,151.66088,0,0,0,30.60448,56.50358c7.635,8.81333,16.61915,16.03046,28.87251,17.03962,13.64233,1.12351,26.96875-4.63748,23.59883-23.72617a108.73586,108.73586,0,0,0-6.4211-21.30581c-7.83338-19.54132-16.09626-38.91078-24.22469-58.3334C316.848,245.1259,309.259,227.11741,301.19692,207.92788ZM271.48565,192.013V241.8964l.75306.15978c7.77-16.52642,15.54-33.05284,23.52808-50.04315Zm20.77,173.29715c-6.87758-14.62665-13.4794-28.66679-20.08121-42.70694l-.84762.41344v42.2935Z" transform="translate(-107.90328 -87.7188)"/><path d="M249.387,87.7188l43.71639,82.92539H205.91222Zm3.87083,71.22981a14.869,14.869,0,0,0,11.71809-15.44968c-.4764-6.87266-5.69188-12.83226-11.71809-13.216Zm-8.47382.0143V129.88052c-7.21816,2.06514-11.10242,7.38273-11.03644,14.78031C233.81181,151.86222,237.7614,157.139,244.784,158.96291Zm34.8604,3.70953c-3.12-5.98681-5.81262-11.15369-8.24315-15.81755l-9.44263,15.81755Zm-43.04953-.08268-9.301-14.83424L219.715,162.58976Zm24.18221-36.1861c-2.66673-4.89719-4.62425-8.492-6.58179-12.08682l-.89669.48357v8.85517Zm-21.21729-1.77319c6.07515-.267,6.649-1.43338,4.61481-9.18246C242.547,118.6866,241.11031,121.5453,239.55982,124.63047Z" transform="translate(-107.90328 -87.7188)"/></g></svg>